<svg fill="white" version="1.1" id="Ebene_1" xmlns="http://www.w3.org/2000/svg" x="0" y="0" viewBox="0 0 626.6 152.3" xml:space="preserve"><path d="M113.7 129.8c.2 2.2.5 5.7.9 10.6v.4c.3 4.6.6 7.9.8 9.9 0 .4-.1.7-.4 1-.2.3-.6.5-1 .6-.4 0-.8-.1-1.1-.3-.3-.2-.5-.6-.5-.9-.2-2.1-.5-5.4-.8-10v-.4c-.2-3.2-.4-5.5-.6-7-.6.7-1 1.2-1.1 1.3s-.2.3-.3.4c-1 1.2-1.8 2.4-2.6 3.5-.3.4-.8.6-1.3.6-.5.1-1-.1-1.3-.4-.7-.7-1.7-1.9-3-3.4-.1-.1-.1-.1-.1-.2-.3-.4-.6-.8-1-1.2v6.3c0 .6 0 1.4.1 2.4v7.6c0 .4-.1.8-.4 1.1s-.7.5-1.1.4c-.8 0-1.5-.6-1.5-1.5V142.9c-.1-1-.1-1.8-.1-2.4-.1-4.2-.1-7.6 0-10 0-.4.2-.8.5-1.1.3-.2.6-.4 1-.4.2 0 .5.1.7.2l.4.2c1.3 1.3 2.5 2.6 3.6 4.1l.1.2c.8 1 1.4 1.6 1.8 2.1.6-.7 1.2-1.5 1.9-2.2.1-.2.2-.3.3-.5.1-.2.6-.8 1.4-1.8s1.3-1.6 1.5-1.8c.1-.2.3-.4.6-.4.3-.3.6-.5 1-.6.4 0 .8.1 1.1.4.1.2.4.6.5.9zM132.2 130.3h1.9c.4-.1.9-.1 1.3-.1 1.3 0 2.5.1 3.7.3.7.1 1.2.7 1.1 1.4 0 .1 0 .2-.1.4-.1.7-.8 1.3-1.5 1.2-.1 0-.2 0-.3-.1-1-.2-2-.3-3-.2-.4 0-.8 0-1.2.1H133v6.9c.9.1 1.8 0 2.8-.1.4 0 .8.1 1.1.4.3.3.5.6.5 1s-.1.8-.3 1.1-.6.5-.9.5c-1 .1-2.1.2-3.1.1.1 2.2.1 4.2.2 5.9 1.1 0 2.2-.1 3.3-.3.4-.1.8 0 1.2.2.3.2.5.5.6.9s.1.7-.1 1.1c-.2.3-.5.5-.9.6-1.8.4-3.7.5-5.5.4-.4 0-.7-.2-1-.4-.3-.3-.5-.7-.4-1.1 0-.1.1-.2.1-.3-.2-2.5-.3-5.5-.3-9.1v-5.3c.1-1.8.1-3.2.1-4.1 0-.4.1-.7.4-1 .3-.3.6-.4 1-.4h.4zM157.5 130.1c-.1 2.1-.2 5.2-.4 9.4s-.3 7.3-.3 9.4v.9c0 .4-.2.7-.4 1-.6.6-1.5.6-2.1 0-.3-.3-.4-.6-.4-1v-.9c.1-2.1.2-5.3.4-9.6.1-4 .3-7.1.3-9.2 0-.4.2-.7.4-1 .6-.6 1.5-.6 2.1 0 .2.1.4.5.4 1zM170.9 148.9c0-6 .1-12.5.3-19.4 0-.4.1-.8.4-1.1.3-.3.7-.4 1.1-.4.4 0 .8.1 1.1.4s.4.7.4 1.1c-.2 6.5-.3 12.7-.3 18.4h4c.4 0 .8.1 1.1.4.6.6.6 1.5 0 2.1-.3.3-.7.5-1.1.4H173c-.2.1-.4.1-.6.1-.2 0-.5-.1-.7-.2-.6-.2-.9-.7-.9-1.3 0-.1 0-.3.1-.5zM196.3 130.3h1.9c.4-.1.9-.1 1.3-.1 1.3 0 2.5.1 3.7.3.7.1 1.2.7 1.1 1.4 0 .1 0 .3-.1.4-.1.7-.8 1.3-1.5 1.2-.1 0-.2 0-.3-.1-1-.2-2-.3-3-.2-.4 0-.8 0-1.2.1h-1.1v6.9c.9.1 1.8 0 2.8-.1.4 0 .8.1 1.1.4.3.3.5.6.5 1s-.1.8-.3 1.1-.6.5-.9.5c-1 .1-2.1.2-3.1.1.1 2.2.1 4.2.2 5.9 1.1 0 2.2-.1 3.3-.3.4-.1.8 0 1.1.2s.5.5.6.9 0 .7-.1 1.1c-.2.3-.5.5-.9.6-1.8.4-3.7.5-5.5.4-.4 0-.7-.2-1-.4-.3-.3-.5-.7-.4-1.1 0-.1.1-.2.1-.3-.2-2.5-.3-5.5-.3-9.1v-5.3c.1-1.8.1-3.2.1-4.1 0-.4.1-.7.4-1 .3-.3.7-.5 1.1-.4h.4zM234.1 149.3c0 .8-.7 1.5-1.5 1.5-.5 0-1-.3-1.2-.7-1-1.6-3.1-4.6-6.3-8.9-1.8-2.4-3.1-4.2-4-5.4v4.2c-.1 4.2-.1 7.2-.1 9.1 0 .4-.1.7-.4 1-.3.3-.6.4-1 .4s-.8-.1-1.1-.4c-.3-.3-.4-.6-.4-1 0-1.9 0-5 .1-9.2.1-4 .1-6.9.1-8.5-.2-.3-.2-.7 0-1 .1-.7.7-1.2 1.4-1.2.8 0 1.5.6 1.5 1.4v.1c1 1.5 3 4.4 6.3 8.8 2 2.7 3.4 4.7 4.3 5.9.3-2 .6-4.5 1-7.4.1-.9.2-2.2.4-4.1.1-1.6.2-2.9.3-3.7.1-.4.3-.8.6-1.1.3-.2.7-.4 1.1-.3.4 0 .8.2 1 .6.3.3.4.8.3 1.2-.1.9-.2 2.1-.3 3.7-.2 1.8-.4 3.2-.4 4.1-.5 4.3-1.1 7.9-1.7 10.9zM256.8 142.1l-.3-.3c-1.2-.9-2.2-1.9-3.1-3-1-1.3-1.4-2.9-1.2-4.5.1-1.3.8-2.6 1.8-3.4 1.1-1 2.5-1.7 4-2.1 1.6-.4 3.2-.2 4.7.4 1.5.7 2.6 2 3.1 3.5.4.6.3 1.3-.3 1.7-.1.1-.3.2-.4.2-.7.4-1.5.1-1.9-.5-.1-.1-.1-.2-.1-.3-.8-1.9-2.3-2.6-4.4-2.1-.9.2-1.7.6-2.5 1.1-.6.4-1 1-1.1 1.7-.1.9.2 1.7.8 2.4.7.9 1.6 1.7 2.5 2.4l.3.3c.1.1.3.2.4.3.9.7 1.7 1.5 2.4 2.4.8 1 1.2 2.3 1.1 3.6-.1 1.8-1.2 3.3-2.8 4-1.7.7-3.7.7-5.3-.1-.7-.2-1.1-.9-.9-1.5 0-.1.1-.2.1-.3.1-.4.5-.8.9-.9h.1l.1-.1h.5l.1.1h.1c.9.4 1.9.5 2.9.2.7-.3 1.1-.9 1.2-1.6.1-.9-.7-2-2.4-3.4-.1 0-.3-.1-.4-.2zM281.4 130.1c2.1-.1 5.2-.2 9.2-.1h1.8c.4 0 .8.1 1.1.4.3.3.4.6.4 1s-.1.8-.4 1.1-.7.4-1.1.4h-1.8c-.7-.1-1.4-.1-2-.1.1 1.8.1 4 .1 6.7v2c0 3.7 0 6.4.1 8.2 0 .8-.6 1.4-1.4 1.5-.4.1-.8-.1-1.1-.4-.3-.3-.4-.6-.4-1-.1-1.8-.1-4.6-.1-8.4v-2c0-2.7 0-4.9-.1-6.6-1.4 0-2.8 0-4.1.1-.4.1-.8-.1-1-.3-.3-.3-.5-.6-.5-1.1 0-.4.1-.7.4-1 .2-.2.6-.4.9-.4zM310.9 130.3h1.9c.4-.1.9-.1 1.3-.1 1.3 0 2.5.1 3.7.3.7.1 1.2.7 1.1 1.4 0 .1 0 .3-.1.4-.1.7-.8 1.3-1.5 1.2-.1 0-.2 0-.3-.1-1-.2-2-.3-3-.2-.4 0-.8 0-1.2.1h-1.1v6.9c.9.1 1.8 0 2.8-.1.4 0 .8.1 1.1.4.3.3.5.6.5 1s-.1.8-.3 1.1c-.2.3-.6.5-.9.5-1 .1-2.1.2-3.1.1.1 2.2.1 4.2.2 5.9 1.1 0 2.2-.1 3.3-.3.4-.1.8 0 1.1.2.3.2.5.5.6.9s0 .8-.2 1.1-.5.5-.9.6c-1.8.4-3.7.5-5.5.4-.4 0-.7-.2-1-.4-.3-.3-.5-.7-.4-1.1 0-.1.1-.2.1-.3-.2-2.5-.3-5.5-.3-9.1v-5.3c.1-1.8.1-3.2.1-4.1 0-.4.1-.7.4-1s.7-.5 1-.4h.6zM336.1 130.1c-.1 2.1-.2 5.2-.4 9.4s-.3 7.3-.3 9.4v.9c0 .4-.2.7-.4 1-.3.3-.6.4-1 .4s-.7-.2-1-.4c-.3-.3-.4-.6-.4-1v-.9c.1-2.1.2-5.3.4-9.6.1-4 .2-7.1.3-9.2 0-.4.2-.7.4-1 .3-.3.6-.4 1-.4s.8.2 1 .4c.3.2.4.6.4 1zM365.8 149.3c0 .8-.7 1.5-1.5 1.5-.5 0-1-.3-1.2-.7-1-1.6-3.1-4.6-6.3-8.9-1.8-2.4-3.1-4.2-4-5.4v4.2c-.1 4.2-.1 7.2-.1 9.1 0 .4-.1.7-.4 1s-.6.4-1 .4-.8-.1-1.1-.4c-.3-.3-.4-.6-.4-1 0-1.9 0-5 .1-9.2.1-4 .1-6.9.1-8.5-.2-.3-.2-.7 0-1 .1-.7.7-1.2 1.4-1.2.8 0 1.5.6 1.5 1.4v.1c1 1.5 3 4.4 6.3 8.8 2 2.7 3.4 4.7 4.3 5.9.3-2 .6-4.5 1-7.4.1-.9.2-2.2.4-4.1.1-1.6.2-2.9.3-3.7.1-.4.3-.8.6-1.1.3-.2.7-.4 1.1-.3.4 0 .8.2 1 .6.3.3.4.8.3 1.2-.1.9-.2 2.1-.3 3.7-.2 1.8-.4 3.2-.4 4.1-.5 4.3-1.1 8-1.7 10.9zM383.7 130.1c2.1-.1 5.2-.2 9.2-.1h1.8c.4 0 .8.1 1.1.4.3.3.4.6.4 1s-.1.8-.4 1.1-.7.4-1.1.4H393c-.7-.1-1.4-.1-2-.1.1 1.8.1 4 .1 6.7v2c0 3.7 0 6.4.1 8.2 0 .8-.6 1.4-1.4 1.5-.4.1-.8-.1-1.1-.4-.3-.3-.4-.6-.4-1-.1-1.8-.1-4.6-.1-8.4v-2c0-2.7 0-4.9-.1-6.6-1.4 0-2.8 0-4.1.1-.4 0-.7-.1-1-.3-.3-.3-.5-.6-.5-1.1 0-.4.1-.7.4-1 .1-.2.5-.4.8-.4zM409.5 148.5c0-4.6.7-9.1 2.1-13.4 1.3-3.6 2.9-5.6 4.8-6.2 1.2-.3 2.5.1 3.4 1 .9 1.1 1.6 2.4 2.1 3.7 1.2 3.5 1.8 8.5 1.8 15.1 0 .8-.6 1.5-1.5 1.5h-.1c-.4 0-.8-.1-1-.4-.3-.3-.4-.7-.4-1.1 0-1.9-.1-3.7-.2-5.4-.6 0-1.5 0-2.9.1-.3.1-.6.1-.9.1-1.6.1-2.9.1-4 .1-.1 1.5-.3 3.2-.3 4.9 0 .4-.2.7-.4 1-.3.3-.7.4-1 .4-.4 0-.7-.2-1-.4-.4-.2-.5-.6-.5-1zm3.7-7.8c.9 0 2 0 3.3-.1.3 0 .6 0 .9-.1 1.3-.1 2.3-.1 2.9-.1-.2-1.9-.6-3.9-1.2-5.7-.2-.9-.7-1.8-1.3-2.5-.2-.3-.4-.4-.5-.3-.4.1-.8.4-1.2 1.1-.7 1-1.2 2.1-1.5 3.3-.6 1.4-1 2.9-1.4 4.4zM439.4 131c1.1.1 2.1.1 3.2 0h.1c1.8 0 3.1 0 4 .1.4.1.7.3.9.6.5.7.4 1.6-.2 2.1-.3.2-.6.3-1 .3-.8-.1-2-.1-3.5-.1h-.1c-.6.1-1.2.1-1.9 0-.2 2.5-.4 5.5-.4 9.1v.2c.3-.1.6-.1.9-.1h1.6c.4 0 .8.2 1.1.4.6.6.6 1.5 0 2.1-.3.3-.7.4-1.1.4h-1.5c-.3 0-.6 0-.9.1v4.1c0 .4-.2.7-.4 1-.3.3-.7.4-1 .4-.4 0-.7-.2-1-.4-.3-.3-.4-.6-.4-1v-3.2c-.1-1.8-.1-3.2-.1-4.1.1-3.9.2-7.2.4-9.9.1-.1.1-.1.1-.2-.1-.2-.1-.4-.1-.7 0-.4.2-.8.5-1.1.1 0 .5-.1.8-.1zM464.9 130.3h1.9c.4-.1.9-.1 1.3-.1 1.3 0 2.5.1 3.7.3.7.1 1.2.7 1.1 1.4 0 .1 0 .3-.1.4-.1.7-.8 1.3-1.5 1.2-.1 0-.2 0-.3-.1-1-.2-2-.3-3-.2-.4 0-.8 0-1.2.1h-1.1v6.9c.9.1 1.8 0 2.8-.1.4 0 .8.1 1.1.4.6.5.7 1.5.2 2.1-.2.3-.6.5-.9.5-1 .1-2.1.2-3.1.1.1 2.2.1 4.2.2 5.9 1.1 0 2.2-.1 3.3-.3.4-.1.8 0 1.1.2.3.2.5.5.6.9s0 .8-.2 1.1-.5.5-.9.6c-1.8.4-3.7.5-5.5.4-.4 0-.7-.2-1-.4-.3-.3-.5-.7-.4-1.1 0-.1 0-.2.1-.3-.2-2.5-.3-5.5-.3-9.1v-5.3c.1-1.8.1-3.2.1-4.1 0-.4.1-.7.4-1s.7-.5 1-.4h.6zM486.5 148.9c0-6 .1-12.5.3-19.4 0-.4.1-.8.4-1.1s.7-.4 1.1-.4.7.2 1 .4c.3.3.4.7.4 1.1-.2 6.5-.3 12.7-.3 18.4h4c.4 0 .8.2 1.1.4.6.6.6 1.5 0 2.1-.3.3-.7.4-1.1.4h-5c-.2.1-.4.1-.5.1-.2 0-.5-.1-.7-.2-.6-.2-.9-.7-.9-1.3.1-.1.1-.3.2-.5zM524.6 149.3c0 .8-.7 1.5-1.5 1.5-.5 0-1-.3-1.2-.7-1-1.6-3.1-4.6-6.3-8.9-1.8-2.4-3.1-4.2-4-5.4v4.2c-.1 4.2-.1 7.2-.1 9.1 0 .4-.1.7-.4 1s-.6.4-1 .4-.8-.2-1.1-.4c-.3-.3-.4-.6-.4-1 0-1.9 0-5 .1-9.2.1-4 .1-6.9.1-8.5-.1-.3-.1-.7 0-1 .1-.7.7-1.2 1.4-1.2.8 0 1.5.6 1.5 1.4v.1c1 1.5 3.1 4.4 6.3 8.8 2 2.7 3.4 4.7 4.3 5.9.3-2 .6-4.5 1-7.4.1-.9.2-2.2.4-4.1.2-1.6.3-2.9.3-3.7.1-.4.3-.8.6-1.1.3-.2.7-.4 1.1-.3.8.1 1.4.8 1.3 1.6v.1c-.1.9-.2 2.1-.3 3.7-.2 1.8-.4 3.2-.4 4.1-.5 4.4-1 8.1-1.7 11zM5.8 24.1c5.6 2.2 10.7 6.5 15.2 12.8 4.4 6.1 7.4 13.1 8.8 20.5 1.4 8 .6 14.6-2.4 19.8-3.8 6.2-10.2 9.3-19.2 9.3h-.6c-2.4.4-3.9-.6-4.5-3C1.3 74.2.3 64.8.1 55.3c-.2-4.4-.2-10.6 0-18.6v-6.9c0-.6.1-1.2.3-1.8 0-.5.1-1 .3-1.5.8-2.4 2.5-3.2 5.1-2.4zm4.5 54.2c4.8-.4 8.2-2.2 10.2-5.4 2-3.4 2.5-8.1 1.5-14.1-2-10.4-6.6-18.5-13.8-24.3v2.1C8 44.7 8 50.8 8.2 55c.1 7.8.8 15.6 2.1 23.3zM77.2 27.6c-.2 5.9-.5 14.4-1.1 25.6-.4 11.4-.7 19.9-.9 25.5v2.4c0 1-.4 2-1.2 2.7-1.6 1.6-4.1 1.6-5.7 0-.8-.7-1.2-1.7-1.2-2.7v-2.4c.2-5.8.6-14.5 1.2-26.1.4-11 .7-19.4.9-25.2 0-1 .4-2 1.2-2.7 1.6-1.6 4.1-1.6 5.7 0 .7.7 1.2 1.8 1.1 2.9zM123.4 28.2h5.1c1.2-.2 2.4-.3 3.6-.3 3.4-.1 6.8.2 10.2.9 2.6.6 3.6 2.2 2.9 4.8s-2.4 3.6-4.9 3c-2.7-.5-5.4-.7-8.1-.6-1.1 0-2.2.1-3.3.3h-3v18.9c2.5.2 5 .1 7.5-.3 1.1 0 2.2.3 3 1.1.8.7 1.3 1.7 1.4 2.7.1 1.1-.2 2.2-.9 3-.6.8-1.5 1.3-2.6 1.3-2.8.4-5.6.5-8.4.3.2 6 .4 11.4.6 16.2 3 0 6-.3 9-.9 1.1-.2 2.2 0 3.1.6.9.6 1.5 1.5 1.6 2.6.2 1 0 2.1-.6 3-.5.9-1.4 1.5-2.4 1.7-4.9 1-10 1.4-15 1.2-1 0-2-.4-2.7-1.2-.8-.8-1.2-1.9-1.2-3 0-.3.1-.6.3-.9-.6-6.8-.9-15.1-.9-24.9V43.2c.2-5 .3-8.7.3-11.1 0-1 .3-2 1-2.7.7-.8 1.8-1.2 2.9-1.2h1.5zM282.1 27.6c-.2 5.8-.6 14.3-1.2 25.5-.4 11.4-.7 19.9-.9 25.5V81c0 1-.4 2-1.2 2.7-.7.8-1.8 1.2-2.9 1.2s-2.1-.4-2.9-1.2c-.8-.7-1.2-1.7-1.2-2.7v-2.4c.2-5.8.6-14.5 1.2-26.1.4-11 .7-19.4.9-25.2 0-1 .4-2 1.2-2.7.7-.8 1.8-1.2 2.9-1.2s2.1.4 2.9 1.2c.8.8 1.3 1.9 1.2 3zM322.6 23.1c8.6 1.2 15.4 3.6 20.4 7.3s7.6 8.3 7.8 13.6c.6 9.8-5.9 18.4-19.5 25.8l.6.6c2.1 1.2 4.5 1.7 6.9 1.5 1-.2 2.1.2 2.9.9.9.7 1.4 1.7 1.5 2.8.1 1-.2 2.1-.9 2.8-.7.8-1.6 1.3-2.5 1.5-4.1.4-8.2-.5-11.7-2.7l-2.4-1.2c.2 2 .3 4 .3 6 .2 1-.1 2.1-.8 2.8-.6.9-1.6 1.4-2.7 1.5s-2.2-.2-3-.9c-.9-.7-1.4-1.7-1.4-2.8-.7-8.8-.9-17.6-.6-26.4.2-.9.3-1.8.3-2.7.2-12 .1-20.6-.3-25.8-.1-1.4.6-2.8 1.8-3.6.8-.7 2.1-1.2 3.3-1zm3.3 9.1c.2 4.4.2 11.7 0 21.9 0 .9-.1 1.8-.3 2.7V64c5.6-3 9.9-6.2 12.9-9.6 3-3.4 4.4-6.7 4.2-9.9-.4-5.8-6-10-16.8-12.3zM387.1 78c.4-14.6 2.4-26.8 5.9-36.6s7.8-15.4 13-16.8c3.4-.8 6.9.2 9.3 2.7 2.5 3 4.5 6.5 5.7 10.2 3.2 9.4 4.8 23.1 4.8 41.1.1 2.3-1.7 4.1-4 4.2h-.2c-1.1.1-2.1-.4-2.9-1.2-.7-.8-1.1-1.9-1-3 0-5.2-.2-10.1-.6-14.7-1.6 0-4.2.1-7.8.3-.8.2-1.6.3-2.4.3-4.4.2-8 .3-10.8.3-.4 4.2-.7 8.7-.9 13.5.1 1.1-.4 2.1-1.2 2.8-.8.7-1.8 1.1-2.9 1.1s-2.1-.4-2.9-1.2c-.7-.7-1.1-1.8-1.1-3zm10.2-21.3c2.4 0 5.4-.1 9-.3.8 0 1.6-.1 2.4-.3 3.6-.2 6.2-.3 7.8-.3a83.3 83.3 0 0 0-3.3-15.6c-1-3.4-2.2-5.7-3.6-6.9-.6-.8-1.1-1.1-1.5-.9-1 .2-2.1 1.2-3.3 3-1.9 2.8-3.3 5.8-4.2 9-1.3 4.1-2.4 8.2-3.3 12.3zM468.7 30.1c2.9.2 5.8.2 8.7 0h.3c4.8 0 8.4.1 10.8.3 1 .2 1.9.7 2.5 1.5 1.4 1.8 1.2 4.4-.6 5.9-.8.7-1.8 1-2.8.8-2.2-.2-5.4-.3-9.6-.3h-.3c-1.7.2-3.4.2-5.1 0-.6 6.8-1 15.1-1.2 24.9v.6c.8-.2 1.6-.3 2.4-.3h4.5c1.1 0 2.2.4 3 1.2 1.6 1.6 1.6 4.1 0 5.7-.8.8-1.9 1.2-3 1.2h-4.2c-.8 0-1.6.1-2.4.3V83c0 1-.4 2-1.2 2.7-1.6 1.6-4.1 1.6-5.7 0-.8-.7-1.2-1.7-1.2-2.7v-8.7c-.2-5-.3-8.7-.3-11.1.2-10.6.6-19.6 1.2-27 .2-.2.3-.4.3-.6-.2-.6-.3-1.2-.3-1.8 0-2 1.6-3.6 3.6-3.6.2-.2.4-.2.6-.1zM535 30.1c2.9.2 5.8.2 8.7 0h.3c4.8 0 8.4.1 10.8.3 1 .2 1.9.7 2.5 1.5 1.4 1.8 1.2 4.4-.6 5.9-.8.7-1.8 1-2.8.8-2.2-.2-5.4-.3-9.6-.3h-.3c-1.7.2-3.4.2-5.1 0-.6 6.8-1 15.1-1.2 24.9v.6c.8-.2 1.6-.3 2.4-.3h4.5c1.1 0 2.2.4 3 1.2 1.6 1.6 1.6 4.1 0 5.7-.8.8-1.9 1.2-3 1.2h-4.2c-.8 0-1.6.1-2.4.3V83c0 1-.4 2-1.2 2.7-1.6 1.6-4.1 1.6-5.7 0-.8-.7-1.2-1.7-1.2-2.7v-8.7c-.2-5-.3-8.7-.3-11.1.2-10.6.6-19.6 1.2-27 .2-.2.3-.4.3-.6-.2-.6-.3-1.2-.3-1.8 0-2 1.6-3.6 3.6-3.6.2-.2.4-.2.6-.1zM604.6 28.2h5.1c1.2-.2 2.4-.3 3.6-.3 3.4-.1 6.8.2 10.2.9 2.6.6 3.5 2.2 2.8 4.8s-2.4 3.6-5 3c-2.7-.5-5.4-.7-8.1-.6-1.1 0-2.2.1-3.3.3h-3v18.9c2.5.2 5 .1 7.5-.3 1.1 0 2.2.3 3 1.1.8.7 1.3 1.7 1.3 2.7.1 1.1-.2 2.2-.9 3-.6.8-1.5 1.3-2.5 1.3-2.8.4-5.6.5-8.4.3.2 6 .4 11.4.6 16.2 3 0 6-.3 9-.9 1.1-.2 2.2 0 3.2.6.9.6 1.5 1.5 1.7 2.6.2 1 0 2.1-.6 3-.5.9-1.4 1.5-2.4 1.7-4.9 1-10 1.4-15 1.2-1 0-2-.4-2.7-1.2-.8-.8-1.2-1.9-1.2-3 0-.3.1-.6.3-.9-.6-6.8-.9-15.1-.9-24.9V43.2c.2-5 .3-8.7.3-11.1 0-1 .3-2 1-2.7.7-.8 1.8-1.2 2.8-1.2h1.6zM209.6 72.2c1.6-.2 4.1-.4 7.5-.6h1.5c4.4-.2 7.9-.3 10.5-.3 1 0 2 .3 2.7 1 .8.7 1.2 1.8 1.2 2.8.1 1.3-.5 2.5-1.5 3.3-1 7.8-2.8 13.7-5.4 17.7-3.2 4.8-7.3 7-12.3 6.6-8-.8-15.4-7.7-22.2-20.7-6.8-12.8-10.1-25.9-9.9-39.3.4-16.2 6.4-28.5 18-36.9C204.9 2 209.8 0 214.4-.1s9.6 1.8 15 5.6c2.4 1.4 2.8 3.2 1.2 5.5s-3.5 2.6-5.7 1c-4-2.8-7.4-4.2-10.4-4-2.9.1-6.3 1.6-10.3 4.4-9.2 6.8-14 17-14.4 30.6-.1 12.3 3 24.4 9 35.1 2 4.3 4.7 8.2 7.9 11.7 2.9 3 5.6 4.6 8 4.8 1.6.2 3.1-.8 4.5-3 1.8-2.6 3.1-6.7 3.9-12.3-1.3 0-2.6.1-3.9.3h-1.5c-3.4.2-6 .4-7.8.6-1.1 0-2.2-.4-3-1.2-.8-.7-1.2-1.8-1.2-2.8s.3-2.1 1-2.8c.8-.8 1.8-1.3 2.9-1.2z"></path></svg>